<mxfile host="app.diagrams.net" modified="2023-07-30T10:23:43.340Z" agent="Mozilla/5.0 (Windows NT 10.0; Win64; x64; rv:109.0) Gecko/20100101 Firefox/115.0" etag="oo-07mEEguTJ5LtUlmAg" version="21.6.6" type="device">
  <diagram name="Страница 1" id="Op7uaTS2ZSwpce5F1zdu">
    <mxGraphModel dx="691" dy="381" grid="1" gridSize="10" guides="1" tooltips="1" connect="1" arrows="1" fold="1" page="1" pageScale="1" pageWidth="827" pageHeight="1169" math="0" shadow="0">
      <root>
        <mxCell id="0" />
        <mxCell id="1" parent="0" />
        <mxCell id="4kmjUg7XTupkvUbKVNHZ-200" value="" style="rounded=0;whiteSpace=wrap;html=1;fillColor=#FFFFFF;strokeColor=default;gradientColor=none;" parent="1" vertex="1">
          <mxGeometry x="270" y="310" width="10" height="10" as="geometry" />
        </mxCell>
        <mxCell id="4kmjUg7XTupkvUbKVNHZ-201" value="" style="rounded=0;whiteSpace=wrap;html=1;fillColor=#FFFFFF;" parent="1" vertex="1">
          <mxGeometry x="280" y="320" width="10" height="10" as="geometry" />
        </mxCell>
        <mxCell id="4kmjUg7XTupkvUbKVNHZ-202" value="" style="rounded=0;whiteSpace=wrap;html=1;fillColor=#FFFFFF;strokeColor=default;gradientColor=none;" parent="1" vertex="1">
          <mxGeometry x="290" y="310" width="10" height="10" as="geometry" />
        </mxCell>
        <mxCell id="4kmjUg7XTupkvUbKVNHZ-203" value="" style="rounded=0;whiteSpace=wrap;html=1;fillColor=#000000;strokeColor=#000000;" parent="1" vertex="1">
          <mxGeometry x="290" y="320" width="10" height="10" as="geometry" />
        </mxCell>
        <mxCell id="4kmjUg7XTupkvUbKVNHZ-204" value="" style="rounded=0;whiteSpace=wrap;html=1;fillColor=#FFFFFF;strokeColor=default;gradientColor=none;" parent="1" vertex="1">
          <mxGeometry x="280" y="310" width="10" height="10" as="geometry" />
        </mxCell>
        <mxCell id="4kmjUg7XTupkvUbKVNHZ-205" value="" style="rounded=0;whiteSpace=wrap;html=1;fillColor=#FFFFFF;" parent="1" vertex="1">
          <mxGeometry x="270" y="320" width="10" height="10" as="geometry" />
        </mxCell>
        <mxCell id="4kmjUg7XTupkvUbKVNHZ-206" value="" style="rounded=0;whiteSpace=wrap;html=1;fillColor=#FFFFFF;" parent="1" vertex="1">
          <mxGeometry x="270" y="330" width="10" height="10" as="geometry" />
        </mxCell>
        <mxCell id="4kmjUg7XTupkvUbKVNHZ-207" value="" style="rounded=0;whiteSpace=wrap;html=1;fillColor=#000000;" parent="1" vertex="1">
          <mxGeometry x="280" y="340" width="10" height="10" as="geometry" />
        </mxCell>
        <mxCell id="4kmjUg7XTupkvUbKVNHZ-208" value="" style="rounded=0;whiteSpace=wrap;html=1;fillColor=#FFFFFF;" parent="1" vertex="1">
          <mxGeometry x="290" y="330" width="10" height="10" as="geometry" />
        </mxCell>
        <mxCell id="4kmjUg7XTupkvUbKVNHZ-209" value="" style="rounded=0;whiteSpace=wrap;html=1;fillColor=#000000;" parent="1" vertex="1">
          <mxGeometry x="290" y="340" width="10" height="10" as="geometry" />
        </mxCell>
        <mxCell id="4kmjUg7XTupkvUbKVNHZ-210" value="" style="rounded=0;whiteSpace=wrap;html=1;fillColor=#FFFFFF;" parent="1" vertex="1">
          <mxGeometry x="280" y="330" width="10" height="10" as="geometry" />
        </mxCell>
        <mxCell id="4kmjUg7XTupkvUbKVNHZ-211" value="" style="rounded=0;whiteSpace=wrap;html=1;fillColor=#FFFFFF;" parent="1" vertex="1">
          <mxGeometry x="270" y="340" width="10" height="10" as="geometry" />
        </mxCell>
        <mxCell id="4kmjUg7XTupkvUbKVNHZ-212" value="" style="rounded=0;whiteSpace=wrap;html=1;fillColor=#FFFFFF;strokeColor=default;gradientColor=none;" parent="1" vertex="1">
          <mxGeometry x="300" y="310" width="10" height="10" as="geometry" />
        </mxCell>
        <mxCell id="4kmjUg7XTupkvUbKVNHZ-213" value="" style="rounded=0;whiteSpace=wrap;html=1;fillColor=#FFFFFF;" parent="1" vertex="1">
          <mxGeometry x="310" y="320" width="10" height="10" as="geometry" />
        </mxCell>
        <mxCell id="4kmjUg7XTupkvUbKVNHZ-214" value="" style="rounded=0;whiteSpace=wrap;html=1;fillColor=#FFFFFF;strokeColor=default;gradientColor=none;" parent="1" vertex="1">
          <mxGeometry x="310" y="310" width="10" height="10" as="geometry" />
        </mxCell>
        <mxCell id="4kmjUg7XTupkvUbKVNHZ-215" value="" style="rounded=0;whiteSpace=wrap;html=1;fillColor=#FFFFFF;" parent="1" vertex="1">
          <mxGeometry x="300" y="320" width="10" height="10" as="geometry" />
        </mxCell>
        <mxCell id="4kmjUg7XTupkvUbKVNHZ-216" value="" style="rounded=0;whiteSpace=wrap;html=1;fillColor=#000000;" parent="1" vertex="1">
          <mxGeometry x="300" y="330" width="10" height="10" as="geometry" />
        </mxCell>
        <mxCell id="4kmjUg7XTupkvUbKVNHZ-217" value="" style="rounded=0;whiteSpace=wrap;html=1;fillColor=#FFFFFF;" parent="1" vertex="1">
          <mxGeometry x="310" y="340" width="10" height="10" as="geometry" />
        </mxCell>
        <mxCell id="4kmjUg7XTupkvUbKVNHZ-218" value="" style="rounded=0;whiteSpace=wrap;html=1;fillColor=#FFFFFF;" parent="1" vertex="1">
          <mxGeometry x="310" y="330" width="10" height="10" as="geometry" />
        </mxCell>
        <mxCell id="4kmjUg7XTupkvUbKVNHZ-219" value="" style="rounded=0;whiteSpace=wrap;html=1;fillColor=#000000;" parent="1" vertex="1">
          <mxGeometry x="300" y="340" width="10" height="10" as="geometry" />
        </mxCell>
        <mxCell id="4kmjUg7XTupkvUbKVNHZ-220" value="" style="rounded=0;whiteSpace=wrap;html=1;fillColor=#FFFFFF;" parent="1" vertex="1">
          <mxGeometry x="280" y="350" width="10" height="10" as="geometry" />
        </mxCell>
        <mxCell id="4kmjUg7XTupkvUbKVNHZ-221" value="" style="rounded=0;whiteSpace=wrap;html=1;fillColor=#FFFFFF;" parent="1" vertex="1">
          <mxGeometry x="290" y="350" width="10" height="10" as="geometry" />
        </mxCell>
        <mxCell id="4kmjUg7XTupkvUbKVNHZ-222" value="" style="rounded=0;whiteSpace=wrap;html=1;fillColor=#FFFFFF;" parent="1" vertex="1">
          <mxGeometry x="270" y="350" width="10" height="10" as="geometry" />
        </mxCell>
        <mxCell id="4kmjUg7XTupkvUbKVNHZ-223" value="" style="rounded=0;whiteSpace=wrap;html=1;fillColor=#FFFFFF;" parent="1" vertex="1">
          <mxGeometry x="310" y="350" width="10" height="10" as="geometry" />
        </mxCell>
        <mxCell id="4kmjUg7XTupkvUbKVNHZ-224" value="" style="rounded=0;whiteSpace=wrap;html=1;fillColor=#FFFFFF;" parent="1" vertex="1">
          <mxGeometry x="300" y="350" width="10" height="10" as="geometry" />
        </mxCell>
        <mxCell id="4kmjUg7XTupkvUbKVNHZ-225" value="" style="rounded=0;whiteSpace=wrap;html=1;fillColor=#FFFFFF;" parent="1" vertex="1">
          <mxGeometry x="280" y="360" width="10" height="10" as="geometry" />
        </mxCell>
        <mxCell id="4kmjUg7XTupkvUbKVNHZ-226" value="" style="rounded=0;whiteSpace=wrap;html=1;fillColor=#FFFFFF;" parent="1" vertex="1">
          <mxGeometry x="290" y="360" width="10" height="10" as="geometry" />
        </mxCell>
        <mxCell id="4kmjUg7XTupkvUbKVNHZ-227" value="" style="rounded=0;whiteSpace=wrap;html=1;fillColor=#FFFFFF;" parent="1" vertex="1">
          <mxGeometry x="270" y="360" width="10" height="10" as="geometry" />
        </mxCell>
        <mxCell id="4kmjUg7XTupkvUbKVNHZ-228" value="" style="rounded=0;whiteSpace=wrap;html=1;fillColor=#FFFFFF;" parent="1" vertex="1">
          <mxGeometry x="310" y="360" width="10" height="10" as="geometry" />
        </mxCell>
        <mxCell id="4kmjUg7XTupkvUbKVNHZ-229" value="" style="rounded=0;whiteSpace=wrap;html=1;fillColor=#FFFFFF;" parent="1" vertex="1">
          <mxGeometry x="300" y="360" width="10" height="10" as="geometry" />
        </mxCell>
        <mxCell id="4kmjUg7XTupkvUbKVNHZ-230" value="" style="rounded=0;whiteSpace=wrap;html=1;fillColor=#FFFFFF;" parent="1" vertex="1">
          <mxGeometry x="320" y="320" width="10" height="10" as="geometry" />
        </mxCell>
        <mxCell id="4kmjUg7XTupkvUbKVNHZ-231" value="" style="rounded=0;whiteSpace=wrap;html=1;fillColor=#FFFFFF;strokeColor=default;gradientColor=none;" parent="1" vertex="1">
          <mxGeometry x="320" y="310" width="10" height="10" as="geometry" />
        </mxCell>
        <mxCell id="4kmjUg7XTupkvUbKVNHZ-232" value="" style="rounded=0;whiteSpace=wrap;html=1;fillColor=#FFFFFF;" parent="1" vertex="1">
          <mxGeometry x="320" y="340" width="10" height="10" as="geometry" />
        </mxCell>
        <mxCell id="4kmjUg7XTupkvUbKVNHZ-233" value="" style="rounded=0;whiteSpace=wrap;html=1;fillColor=#FFFFFF;" parent="1" vertex="1">
          <mxGeometry x="320" y="330" width="10" height="10" as="geometry" />
        </mxCell>
        <mxCell id="4kmjUg7XTupkvUbKVNHZ-234" value="" style="rounded=0;whiteSpace=wrap;html=1;fillColor=#FFFFFF;" parent="1" vertex="1">
          <mxGeometry x="320" y="350" width="10" height="10" as="geometry" />
        </mxCell>
        <mxCell id="4kmjUg7XTupkvUbKVNHZ-235" value="" style="rounded=0;whiteSpace=wrap;html=1;fillColor=#FFFFFF;" parent="1" vertex="1">
          <mxGeometry x="320" y="360" width="10" height="10" as="geometry" />
        </mxCell>
        <mxCell id="4kmjUg7XTupkvUbKVNHZ-524" value="" style="rounded=0;whiteSpace=wrap;html=1;fillColor=#FFFFFF;strokeColor=default;gradientColor=none;" parent="1" vertex="1">
          <mxGeometry x="365" y="310" width="10" height="10" as="geometry" />
        </mxCell>
        <mxCell id="4kmjUg7XTupkvUbKVNHZ-525" value="" style="rounded=0;whiteSpace=wrap;html=1;fillColor=#FFFFFF;" parent="1" vertex="1">
          <mxGeometry x="375" y="320" width="10" height="10" as="geometry" />
        </mxCell>
        <mxCell id="4kmjUg7XTupkvUbKVNHZ-526" value="" style="rounded=0;whiteSpace=wrap;html=1;fillColor=#FFFFFF;strokeColor=default;gradientColor=none;" parent="1" vertex="1">
          <mxGeometry x="385" y="310" width="10" height="10" as="geometry" />
        </mxCell>
        <mxCell id="4kmjUg7XTupkvUbKVNHZ-527" value="" style="rounded=0;whiteSpace=wrap;html=1;fillColor=#FFFFFF;strokeColor=#000000;" parent="1" vertex="1">
          <mxGeometry x="385" y="320" width="10" height="10" as="geometry" />
        </mxCell>
        <mxCell id="4kmjUg7XTupkvUbKVNHZ-528" value="" style="rounded=0;whiteSpace=wrap;html=1;fillColor=#FFFFFF;strokeColor=default;gradientColor=none;" parent="1" vertex="1">
          <mxGeometry x="375" y="310" width="10" height="10" as="geometry" />
        </mxCell>
        <mxCell id="4kmjUg7XTupkvUbKVNHZ-529" value="" style="rounded=0;whiteSpace=wrap;html=1;fillColor=#FFFFFF;" parent="1" vertex="1">
          <mxGeometry x="365" y="320" width="10" height="10" as="geometry" />
        </mxCell>
        <mxCell id="4kmjUg7XTupkvUbKVNHZ-530" value="" style="rounded=0;whiteSpace=wrap;html=1;fillColor=#FFFFFF;" parent="1" vertex="1">
          <mxGeometry x="365" y="330" width="10" height="10" as="geometry" />
        </mxCell>
        <mxCell id="4kmjUg7XTupkvUbKVNHZ-531" value="" style="rounded=0;whiteSpace=wrap;html=1;fillColor=#FFFFFF;" parent="1" vertex="1">
          <mxGeometry x="375" y="340" width="10" height="10" as="geometry" />
        </mxCell>
        <mxCell id="4kmjUg7XTupkvUbKVNHZ-532" value="" style="rounded=0;whiteSpace=wrap;html=1;fillColor=#FFFFFF;" parent="1" vertex="1">
          <mxGeometry x="385" y="330" width="10" height="10" as="geometry" />
        </mxCell>
        <mxCell id="4kmjUg7XTupkvUbKVNHZ-533" value="" style="rounded=0;whiteSpace=wrap;html=1;fillColor=#000000;" parent="1" vertex="1">
          <mxGeometry x="385" y="340" width="10" height="10" as="geometry" />
        </mxCell>
        <mxCell id="4kmjUg7XTupkvUbKVNHZ-534" value="" style="rounded=0;whiteSpace=wrap;html=1;fillColor=#000000;" parent="1" vertex="1">
          <mxGeometry x="375" y="330" width="10" height="10" as="geometry" />
        </mxCell>
        <mxCell id="4kmjUg7XTupkvUbKVNHZ-535" value="" style="rounded=0;whiteSpace=wrap;html=1;fillColor=#FFFFFF;" parent="1" vertex="1">
          <mxGeometry x="365" y="340" width="10" height="10" as="geometry" />
        </mxCell>
        <mxCell id="4kmjUg7XTupkvUbKVNHZ-536" value="" style="rounded=0;whiteSpace=wrap;html=1;fillColor=#FFFFFF;strokeColor=default;gradientColor=none;" parent="1" vertex="1">
          <mxGeometry x="395" y="310" width="10" height="10" as="geometry" />
        </mxCell>
        <mxCell id="4kmjUg7XTupkvUbKVNHZ-537" value="" style="rounded=0;whiteSpace=wrap;html=1;fillColor=#FFFFFF;" parent="1" vertex="1">
          <mxGeometry x="405" y="320" width="10" height="10" as="geometry" />
        </mxCell>
        <mxCell id="4kmjUg7XTupkvUbKVNHZ-538" value="" style="rounded=0;whiteSpace=wrap;html=1;fillColor=#FFFFFF;strokeColor=default;gradientColor=none;" parent="1" vertex="1">
          <mxGeometry x="405" y="310" width="10" height="10" as="geometry" />
        </mxCell>
        <mxCell id="4kmjUg7XTupkvUbKVNHZ-539" value="" style="rounded=0;whiteSpace=wrap;html=1;fillColor=#FFFFFF;" parent="1" vertex="1">
          <mxGeometry x="395" y="320" width="10" height="10" as="geometry" />
        </mxCell>
        <mxCell id="4kmjUg7XTupkvUbKVNHZ-540" value="" style="rounded=0;whiteSpace=wrap;html=1;fillColor=#000000;" parent="1" vertex="1">
          <mxGeometry x="395" y="330" width="10" height="10" as="geometry" />
        </mxCell>
        <mxCell id="4kmjUg7XTupkvUbKVNHZ-541" value="" style="rounded=0;whiteSpace=wrap;html=1;fillColor=#FFFFFF;" parent="1" vertex="1">
          <mxGeometry x="405" y="340" width="10" height="10" as="geometry" />
        </mxCell>
        <mxCell id="4kmjUg7XTupkvUbKVNHZ-542" value="" style="rounded=0;whiteSpace=wrap;html=1;fillColor=#FFFFFF;" parent="1" vertex="1">
          <mxGeometry x="405" y="330" width="10" height="10" as="geometry" />
        </mxCell>
        <mxCell id="4kmjUg7XTupkvUbKVNHZ-543" value="" style="rounded=0;whiteSpace=wrap;html=1;fillColor=#000000;" parent="1" vertex="1">
          <mxGeometry x="395" y="340" width="10" height="10" as="geometry" />
        </mxCell>
        <mxCell id="4kmjUg7XTupkvUbKVNHZ-544" value="" style="rounded=0;whiteSpace=wrap;html=1;fillColor=#FFFFFF;" parent="1" vertex="1">
          <mxGeometry x="375" y="350" width="10" height="10" as="geometry" />
        </mxCell>
        <mxCell id="4kmjUg7XTupkvUbKVNHZ-545" value="" style="rounded=0;whiteSpace=wrap;html=1;fillColor=#000000;" parent="1" vertex="1">
          <mxGeometry x="385" y="350" width="10" height="10" as="geometry" />
        </mxCell>
        <mxCell id="4kmjUg7XTupkvUbKVNHZ-546" value="" style="rounded=0;whiteSpace=wrap;html=1;fillColor=#FFFFFF;" parent="1" vertex="1">
          <mxGeometry x="365" y="350" width="10" height="10" as="geometry" />
        </mxCell>
        <mxCell id="4kmjUg7XTupkvUbKVNHZ-547" value="" style="rounded=0;whiteSpace=wrap;html=1;fillColor=#FFFFFF;" parent="1" vertex="1">
          <mxGeometry x="405" y="350" width="10" height="10" as="geometry" />
        </mxCell>
        <mxCell id="4kmjUg7XTupkvUbKVNHZ-548" value="" style="rounded=0;whiteSpace=wrap;html=1;fillColor=#FFFFFF;" parent="1" vertex="1">
          <mxGeometry x="395" y="350" width="10" height="10" as="geometry" />
        </mxCell>
        <mxCell id="4kmjUg7XTupkvUbKVNHZ-549" value="" style="rounded=0;whiteSpace=wrap;html=1;fillColor=#FFFFFF;" parent="1" vertex="1">
          <mxGeometry x="375" y="360" width="10" height="10" as="geometry" />
        </mxCell>
        <mxCell id="4kmjUg7XTupkvUbKVNHZ-550" value="" style="rounded=0;whiteSpace=wrap;html=1;fillColor=#FFFFFF;" parent="1" vertex="1">
          <mxGeometry x="385" y="360" width="10" height="10" as="geometry" />
        </mxCell>
        <mxCell id="4kmjUg7XTupkvUbKVNHZ-551" value="" style="rounded=0;whiteSpace=wrap;html=1;fillColor=#FFFFFF;" parent="1" vertex="1">
          <mxGeometry x="365" y="360" width="10" height="10" as="geometry" />
        </mxCell>
        <mxCell id="4kmjUg7XTupkvUbKVNHZ-552" value="" style="rounded=0;whiteSpace=wrap;html=1;fillColor=#FFFFFF;" parent="1" vertex="1">
          <mxGeometry x="405" y="360" width="10" height="10" as="geometry" />
        </mxCell>
        <mxCell id="4kmjUg7XTupkvUbKVNHZ-553" value="" style="rounded=0;whiteSpace=wrap;html=1;fillColor=#FFFFFF;" parent="1" vertex="1">
          <mxGeometry x="395" y="360" width="10" height="10" as="geometry" />
        </mxCell>
        <mxCell id="4kmjUg7XTupkvUbKVNHZ-554" value="" style="rounded=0;whiteSpace=wrap;html=1;fillColor=#FFFFFF;" parent="1" vertex="1">
          <mxGeometry x="415" y="320" width="10" height="10" as="geometry" />
        </mxCell>
        <mxCell id="4kmjUg7XTupkvUbKVNHZ-555" value="" style="rounded=0;whiteSpace=wrap;html=1;fillColor=#FFFFFF;strokeColor=default;gradientColor=none;" parent="1" vertex="1">
          <mxGeometry x="415" y="310" width="10" height="10" as="geometry" />
        </mxCell>
        <mxCell id="4kmjUg7XTupkvUbKVNHZ-556" value="" style="rounded=0;whiteSpace=wrap;html=1;fillColor=#FFFFFF;" parent="1" vertex="1">
          <mxGeometry x="415" y="340" width="10" height="10" as="geometry" />
        </mxCell>
        <mxCell id="4kmjUg7XTupkvUbKVNHZ-557" value="" style="rounded=0;whiteSpace=wrap;html=1;fillColor=#FFFFFF;" parent="1" vertex="1">
          <mxGeometry x="415" y="330" width="10" height="10" as="geometry" />
        </mxCell>
        <mxCell id="4kmjUg7XTupkvUbKVNHZ-558" value="" style="rounded=0;whiteSpace=wrap;html=1;fillColor=#FFFFFF;" parent="1" vertex="1">
          <mxGeometry x="415" y="350" width="10" height="10" as="geometry" />
        </mxCell>
        <mxCell id="4kmjUg7XTupkvUbKVNHZ-559" value="" style="rounded=0;whiteSpace=wrap;html=1;fillColor=#FFFFFF;" parent="1" vertex="1">
          <mxGeometry x="415" y="360" width="10" height="10" as="geometry" />
        </mxCell>
        <mxCell id="4kmjUg7XTupkvUbKVNHZ-561" value="" style="rounded=0;whiteSpace=wrap;html=1;fillColor=#FFFFFF;strokeColor=default;gradientColor=none;" parent="1" vertex="1">
          <mxGeometry x="460" y="310" width="10" height="10" as="geometry" />
        </mxCell>
        <mxCell id="4kmjUg7XTupkvUbKVNHZ-562" value="" style="rounded=0;whiteSpace=wrap;html=1;fillColor=#FFFFFF;" parent="1" vertex="1">
          <mxGeometry x="470" y="320" width="10" height="10" as="geometry" />
        </mxCell>
        <mxCell id="4kmjUg7XTupkvUbKVNHZ-563" value="" style="rounded=0;whiteSpace=wrap;html=1;fillColor=#FFFFFF;strokeColor=default;gradientColor=none;" parent="1" vertex="1">
          <mxGeometry x="480" y="310" width="10" height="10" as="geometry" />
        </mxCell>
        <mxCell id="4kmjUg7XTupkvUbKVNHZ-564" value="" style="rounded=0;whiteSpace=wrap;html=1;fillColor=#FFFFFF;strokeColor=#000000;" parent="1" vertex="1">
          <mxGeometry x="480" y="320" width="10" height="10" as="geometry" />
        </mxCell>
        <mxCell id="4kmjUg7XTupkvUbKVNHZ-565" value="" style="rounded=0;whiteSpace=wrap;html=1;fillColor=#FFFFFF;strokeColor=default;gradientColor=none;" parent="1" vertex="1">
          <mxGeometry x="470" y="310" width="10" height="10" as="geometry" />
        </mxCell>
        <mxCell id="4kmjUg7XTupkvUbKVNHZ-566" value="" style="rounded=0;whiteSpace=wrap;html=1;fillColor=#FFFFFF;" parent="1" vertex="1">
          <mxGeometry x="460" y="320" width="10" height="10" as="geometry" />
        </mxCell>
        <mxCell id="4kmjUg7XTupkvUbKVNHZ-567" value="" style="rounded=0;whiteSpace=wrap;html=1;fillColor=#FFFFFF;" parent="1" vertex="1">
          <mxGeometry x="460" y="330" width="10" height="10" as="geometry" />
        </mxCell>
        <mxCell id="4kmjUg7XTupkvUbKVNHZ-568" value="" style="rounded=0;whiteSpace=wrap;html=1;fillColor=#000000;" parent="1" vertex="1">
          <mxGeometry x="470" y="340" width="10" height="10" as="geometry" />
        </mxCell>
        <mxCell id="4kmjUg7XTupkvUbKVNHZ-569" value="" style="rounded=0;whiteSpace=wrap;html=1;fillColor=#FFFFFF;" parent="1" vertex="1">
          <mxGeometry x="480" y="330" width="10" height="10" as="geometry" />
        </mxCell>
        <mxCell id="4kmjUg7XTupkvUbKVNHZ-570" value="" style="rounded=0;whiteSpace=wrap;html=1;fillColor=#FFFFFF;" parent="1" vertex="1">
          <mxGeometry x="480" y="340" width="10" height="10" as="geometry" />
        </mxCell>
        <mxCell id="4kmjUg7XTupkvUbKVNHZ-571" value="" style="rounded=0;whiteSpace=wrap;html=1;fillColor=#FFFFFF;" parent="1" vertex="1">
          <mxGeometry x="470" y="330" width="10" height="10" as="geometry" />
        </mxCell>
        <mxCell id="4kmjUg7XTupkvUbKVNHZ-572" value="" style="rounded=0;whiteSpace=wrap;html=1;fillColor=#FFFFFF;" parent="1" vertex="1">
          <mxGeometry x="460" y="340" width="10" height="10" as="geometry" />
        </mxCell>
        <mxCell id="4kmjUg7XTupkvUbKVNHZ-573" value="" style="rounded=0;whiteSpace=wrap;html=1;fillColor=#FFFFFF;strokeColor=default;gradientColor=none;" parent="1" vertex="1">
          <mxGeometry x="490" y="310" width="10" height="10" as="geometry" />
        </mxCell>
        <mxCell id="4kmjUg7XTupkvUbKVNHZ-574" value="" style="rounded=0;whiteSpace=wrap;html=1;fillColor=#FFFFFF;" parent="1" vertex="1">
          <mxGeometry x="500" y="320" width="10" height="10" as="geometry" />
        </mxCell>
        <mxCell id="4kmjUg7XTupkvUbKVNHZ-575" value="" style="rounded=0;whiteSpace=wrap;html=1;fillColor=#FFFFFF;strokeColor=default;gradientColor=none;" parent="1" vertex="1">
          <mxGeometry x="500" y="310" width="10" height="10" as="geometry" />
        </mxCell>
        <mxCell id="4kmjUg7XTupkvUbKVNHZ-576" value="" style="rounded=0;whiteSpace=wrap;html=1;fillColor=#FFFFFF;" parent="1" vertex="1">
          <mxGeometry x="490" y="320" width="10" height="10" as="geometry" />
        </mxCell>
        <mxCell id="4kmjUg7XTupkvUbKVNHZ-577" value="" style="rounded=0;whiteSpace=wrap;html=1;fillColor=#000000;" parent="1" vertex="1">
          <mxGeometry x="490" y="330" width="10" height="10" as="geometry" />
        </mxCell>
        <mxCell id="4kmjUg7XTupkvUbKVNHZ-578" value="" style="rounded=0;whiteSpace=wrap;html=1;fillColor=#FFFFFF;" parent="1" vertex="1">
          <mxGeometry x="500" y="340" width="10" height="10" as="geometry" />
        </mxCell>
        <mxCell id="4kmjUg7XTupkvUbKVNHZ-579" value="" style="rounded=0;whiteSpace=wrap;html=1;fillColor=#FFFFFF;" parent="1" vertex="1">
          <mxGeometry x="500" y="330" width="10" height="10" as="geometry" />
        </mxCell>
        <mxCell id="4kmjUg7XTupkvUbKVNHZ-580" value="" style="rounded=0;whiteSpace=wrap;html=1;fillColor=#000000;" parent="1" vertex="1">
          <mxGeometry x="490" y="340" width="10" height="10" as="geometry" />
        </mxCell>
        <mxCell id="4kmjUg7XTupkvUbKVNHZ-581" value="" style="rounded=0;whiteSpace=wrap;html=1;fillColor=#FFFFFF;" parent="1" vertex="1">
          <mxGeometry x="470" y="350" width="10" height="10" as="geometry" />
        </mxCell>
        <mxCell id="4kmjUg7XTupkvUbKVNHZ-582" value="" style="rounded=0;whiteSpace=wrap;html=1;fillColor=#000000;" parent="1" vertex="1">
          <mxGeometry x="480" y="350" width="10" height="10" as="geometry" />
        </mxCell>
        <mxCell id="4kmjUg7XTupkvUbKVNHZ-583" value="" style="rounded=0;whiteSpace=wrap;html=1;fillColor=#FFFFFF;" parent="1" vertex="1">
          <mxGeometry x="460" y="350" width="10" height="10" as="geometry" />
        </mxCell>
        <mxCell id="4kmjUg7XTupkvUbKVNHZ-584" value="" style="rounded=0;whiteSpace=wrap;html=1;fillColor=#FFFFFF;" parent="1" vertex="1">
          <mxGeometry x="500" y="350" width="10" height="10" as="geometry" />
        </mxCell>
        <mxCell id="4kmjUg7XTupkvUbKVNHZ-585" value="" style="rounded=0;whiteSpace=wrap;html=1;fillColor=#000000;" parent="1" vertex="1">
          <mxGeometry x="490" y="350" width="10" height="10" as="geometry" />
        </mxCell>
        <mxCell id="4kmjUg7XTupkvUbKVNHZ-586" value="" style="rounded=0;whiteSpace=wrap;html=1;fillColor=#FFFFFF;" parent="1" vertex="1">
          <mxGeometry x="470" y="360" width="10" height="10" as="geometry" />
        </mxCell>
        <mxCell id="4kmjUg7XTupkvUbKVNHZ-587" value="" style="rounded=0;whiteSpace=wrap;html=1;fillColor=#FFFFFF;" parent="1" vertex="1">
          <mxGeometry x="480" y="360" width="10" height="10" as="geometry" />
        </mxCell>
        <mxCell id="4kmjUg7XTupkvUbKVNHZ-588" value="" style="rounded=0;whiteSpace=wrap;html=1;fillColor=#FFFFFF;" parent="1" vertex="1">
          <mxGeometry x="460" y="360" width="10" height="10" as="geometry" />
        </mxCell>
        <mxCell id="4kmjUg7XTupkvUbKVNHZ-589" value="" style="rounded=0;whiteSpace=wrap;html=1;fillColor=#FFFFFF;" parent="1" vertex="1">
          <mxGeometry x="500" y="360" width="10" height="10" as="geometry" />
        </mxCell>
        <mxCell id="4kmjUg7XTupkvUbKVNHZ-590" value="" style="rounded=0;whiteSpace=wrap;html=1;fillColor=#FFFFFF;" parent="1" vertex="1">
          <mxGeometry x="490" y="360" width="10" height="10" as="geometry" />
        </mxCell>
        <mxCell id="4kmjUg7XTupkvUbKVNHZ-591" value="" style="rounded=0;whiteSpace=wrap;html=1;fillColor=#FFFFFF;" parent="1" vertex="1">
          <mxGeometry x="510" y="320" width="10" height="10" as="geometry" />
        </mxCell>
        <mxCell id="4kmjUg7XTupkvUbKVNHZ-592" value="" style="rounded=0;whiteSpace=wrap;html=1;fillColor=#FFFFFF;strokeColor=default;gradientColor=none;" parent="1" vertex="1">
          <mxGeometry x="510" y="310" width="10" height="10" as="geometry" />
        </mxCell>
        <mxCell id="4kmjUg7XTupkvUbKVNHZ-593" value="" style="rounded=0;whiteSpace=wrap;html=1;fillColor=#FFFFFF;" parent="1" vertex="1">
          <mxGeometry x="510" y="340" width="10" height="10" as="geometry" />
        </mxCell>
        <mxCell id="4kmjUg7XTupkvUbKVNHZ-594" value="" style="rounded=0;whiteSpace=wrap;html=1;fillColor=#FFFFFF;" parent="1" vertex="1">
          <mxGeometry x="510" y="330" width="10" height="10" as="geometry" />
        </mxCell>
        <mxCell id="4kmjUg7XTupkvUbKVNHZ-595" value="" style="rounded=0;whiteSpace=wrap;html=1;fillColor=#FFFFFF;" parent="1" vertex="1">
          <mxGeometry x="510" y="350" width="10" height="10" as="geometry" />
        </mxCell>
        <mxCell id="4kmjUg7XTupkvUbKVNHZ-596" value="" style="rounded=0;whiteSpace=wrap;html=1;fillColor=#FFFFFF;" parent="1" vertex="1">
          <mxGeometry x="510" y="360" width="10" height="10" as="geometry" />
        </mxCell>
        <mxCell id="4kmjUg7XTupkvUbKVNHZ-597" value="" style="rounded=0;whiteSpace=wrap;html=1;fillColor=#FFFFFF;strokeColor=default;gradientColor=none;" parent="1" vertex="1">
          <mxGeometry x="555" y="310" width="10" height="10" as="geometry" />
        </mxCell>
        <mxCell id="4kmjUg7XTupkvUbKVNHZ-598" value="" style="rounded=0;whiteSpace=wrap;html=1;fillColor=#FFFFFF;" parent="1" vertex="1">
          <mxGeometry x="565" y="320" width="10" height="10" as="geometry" />
        </mxCell>
        <mxCell id="4kmjUg7XTupkvUbKVNHZ-599" value="" style="rounded=0;whiteSpace=wrap;html=1;fillColor=#FFFFFF;strokeColor=default;gradientColor=none;" parent="1" vertex="1">
          <mxGeometry x="575" y="310" width="10" height="10" as="geometry" />
        </mxCell>
        <mxCell id="4kmjUg7XTupkvUbKVNHZ-600" value="" style="rounded=0;whiteSpace=wrap;html=1;fillColor=#FFFFFF;strokeColor=#000000;" parent="1" vertex="1">
          <mxGeometry x="575" y="320" width="10" height="10" as="geometry" />
        </mxCell>
        <mxCell id="4kmjUg7XTupkvUbKVNHZ-601" value="" style="rounded=0;whiteSpace=wrap;html=1;fillColor=#FFFFFF;strokeColor=default;gradientColor=none;" parent="1" vertex="1">
          <mxGeometry x="565" y="310" width="10" height="10" as="geometry" />
        </mxCell>
        <mxCell id="4kmjUg7XTupkvUbKVNHZ-602" value="" style="rounded=0;whiteSpace=wrap;html=1;fillColor=#FFFFFF;" parent="1" vertex="1">
          <mxGeometry x="555" y="320" width="10" height="10" as="geometry" />
        </mxCell>
        <mxCell id="4kmjUg7XTupkvUbKVNHZ-603" value="" style="rounded=0;whiteSpace=wrap;html=1;fillColor=#FFFFFF;" parent="1" vertex="1">
          <mxGeometry x="555" y="330" width="10" height="10" as="geometry" />
        </mxCell>
        <mxCell id="4kmjUg7XTupkvUbKVNHZ-604" value="" style="rounded=0;whiteSpace=wrap;html=1;fillColor=#FFFFFF;" parent="1" vertex="1">
          <mxGeometry x="565" y="340" width="10" height="10" as="geometry" />
        </mxCell>
        <mxCell id="4kmjUg7XTupkvUbKVNHZ-605" value="" style="rounded=0;whiteSpace=wrap;html=1;fillColor=#000000;" parent="1" vertex="1">
          <mxGeometry x="575" y="330" width="10" height="10" as="geometry" />
        </mxCell>
        <mxCell id="4kmjUg7XTupkvUbKVNHZ-606" value="" style="rounded=0;whiteSpace=wrap;html=1;" parent="1" vertex="1">
          <mxGeometry x="575" y="340" width="10" height="10" as="geometry" />
        </mxCell>
        <mxCell id="4kmjUg7XTupkvUbKVNHZ-607" value="" style="rounded=0;whiteSpace=wrap;html=1;" parent="1" vertex="1">
          <mxGeometry x="565" y="330" width="10" height="10" as="geometry" />
        </mxCell>
        <mxCell id="4kmjUg7XTupkvUbKVNHZ-608" value="" style="rounded=0;whiteSpace=wrap;html=1;fillColor=#FFFFFF;" parent="1" vertex="1">
          <mxGeometry x="555" y="340" width="10" height="10" as="geometry" />
        </mxCell>
        <mxCell id="4kmjUg7XTupkvUbKVNHZ-609" value="" style="rounded=0;whiteSpace=wrap;html=1;fillColor=#FFFFFF;strokeColor=default;gradientColor=none;" parent="1" vertex="1">
          <mxGeometry x="585" y="310" width="10" height="10" as="geometry" />
        </mxCell>
        <mxCell id="4kmjUg7XTupkvUbKVNHZ-610" value="" style="rounded=0;whiteSpace=wrap;html=1;fillColor=#FFFFFF;" parent="1" vertex="1">
          <mxGeometry x="595" y="320" width="10" height="10" as="geometry" />
        </mxCell>
        <mxCell id="4kmjUg7XTupkvUbKVNHZ-611" value="" style="rounded=0;whiteSpace=wrap;html=1;fillColor=#FFFFFF;strokeColor=default;gradientColor=none;" parent="1" vertex="1">
          <mxGeometry x="595" y="310" width="10" height="10" as="geometry" />
        </mxCell>
        <mxCell id="4kmjUg7XTupkvUbKVNHZ-612" value="" style="rounded=0;whiteSpace=wrap;html=1;fillColor=#FFFFFF;" parent="1" vertex="1">
          <mxGeometry x="585" y="320" width="10" height="10" as="geometry" />
        </mxCell>
        <mxCell id="4kmjUg7XTupkvUbKVNHZ-613" value="" style="rounded=0;whiteSpace=wrap;html=1;fillColor=#FFFFFF;" parent="1" vertex="1">
          <mxGeometry x="585" y="330" width="10" height="10" as="geometry" />
        </mxCell>
        <mxCell id="4kmjUg7XTupkvUbKVNHZ-614" value="" style="rounded=0;whiteSpace=wrap;html=1;fillColor=#000000;" parent="1" vertex="1">
          <mxGeometry x="595" y="340" width="10" height="10" as="geometry" />
        </mxCell>
        <mxCell id="4kmjUg7XTupkvUbKVNHZ-615" value="" style="rounded=0;whiteSpace=wrap;html=1;fillColor=#FFFFFF;" parent="1" vertex="1">
          <mxGeometry x="595" y="330" width="10" height="10" as="geometry" />
        </mxCell>
        <mxCell id="4kmjUg7XTupkvUbKVNHZ-616" value="" style="rounded=0;whiteSpace=wrap;html=1;fillColor=#000000;" parent="1" vertex="1">
          <mxGeometry x="585" y="340" width="10" height="10" as="geometry" />
        </mxCell>
        <mxCell id="4kmjUg7XTupkvUbKVNHZ-617" value="" style="rounded=0;whiteSpace=wrap;html=1;fillColor=#FFFFFF;" parent="1" vertex="1">
          <mxGeometry x="565" y="350" width="10" height="10" as="geometry" />
        </mxCell>
        <mxCell id="4kmjUg7XTupkvUbKVNHZ-618" value="" style="rounded=0;whiteSpace=wrap;html=1;fillColor=#000000;" parent="1" vertex="1">
          <mxGeometry x="575" y="350" width="10" height="10" as="geometry" />
        </mxCell>
        <mxCell id="4kmjUg7XTupkvUbKVNHZ-619" value="" style="rounded=0;whiteSpace=wrap;html=1;fillColor=#FFFFFF;" parent="1" vertex="1">
          <mxGeometry x="555" y="350" width="10" height="10" as="geometry" />
        </mxCell>
        <mxCell id="4kmjUg7XTupkvUbKVNHZ-620" value="" style="rounded=0;whiteSpace=wrap;html=1;fillColor=#FFFFFF;" parent="1" vertex="1">
          <mxGeometry x="595" y="350" width="10" height="10" as="geometry" />
        </mxCell>
        <mxCell id="4kmjUg7XTupkvUbKVNHZ-621" value="" style="rounded=0;whiteSpace=wrap;html=1;fillColor=#000000;" parent="1" vertex="1">
          <mxGeometry x="585" y="350" width="10" height="10" as="geometry" />
        </mxCell>
        <mxCell id="4kmjUg7XTupkvUbKVNHZ-622" value="" style="rounded=0;whiteSpace=wrap;html=1;fillColor=#FFFFFF;" parent="1" vertex="1">
          <mxGeometry x="565" y="360" width="10" height="10" as="geometry" />
        </mxCell>
        <mxCell id="4kmjUg7XTupkvUbKVNHZ-623" value="" style="rounded=0;whiteSpace=wrap;html=1;fillColor=#FFFFFF;" parent="1" vertex="1">
          <mxGeometry x="575" y="360" width="10" height="10" as="geometry" />
        </mxCell>
        <mxCell id="4kmjUg7XTupkvUbKVNHZ-624" value="" style="rounded=0;whiteSpace=wrap;html=1;fillColor=#FFFFFF;" parent="1" vertex="1">
          <mxGeometry x="555" y="360" width="10" height="10" as="geometry" />
        </mxCell>
        <mxCell id="4kmjUg7XTupkvUbKVNHZ-625" value="" style="rounded=0;whiteSpace=wrap;html=1;fillColor=#FFFFFF;" parent="1" vertex="1">
          <mxGeometry x="595" y="360" width="10" height="10" as="geometry" />
        </mxCell>
        <mxCell id="4kmjUg7XTupkvUbKVNHZ-626" value="" style="rounded=0;whiteSpace=wrap;html=1;fillColor=#FFFFFF;" parent="1" vertex="1">
          <mxGeometry x="585" y="360" width="10" height="10" as="geometry" />
        </mxCell>
        <mxCell id="4kmjUg7XTupkvUbKVNHZ-627" value="" style="rounded=0;whiteSpace=wrap;html=1;fillColor=#FFFFFF;" parent="1" vertex="1">
          <mxGeometry x="605" y="320" width="10" height="10" as="geometry" />
        </mxCell>
        <mxCell id="4kmjUg7XTupkvUbKVNHZ-628" value="" style="rounded=0;whiteSpace=wrap;html=1;fillColor=#FFFFFF;strokeColor=default;gradientColor=none;" parent="1" vertex="1">
          <mxGeometry x="605" y="310" width="10" height="10" as="geometry" />
        </mxCell>
        <mxCell id="4kmjUg7XTupkvUbKVNHZ-629" value="" style="rounded=0;whiteSpace=wrap;html=1;fillColor=#FFFFFF;" parent="1" vertex="1">
          <mxGeometry x="605" y="340" width="10" height="10" as="geometry" />
        </mxCell>
        <mxCell id="4kmjUg7XTupkvUbKVNHZ-630" value="" style="rounded=0;whiteSpace=wrap;html=1;fillColor=#FFFFFF;" parent="1" vertex="1">
          <mxGeometry x="605" y="330" width="10" height="10" as="geometry" />
        </mxCell>
        <mxCell id="4kmjUg7XTupkvUbKVNHZ-631" value="" style="rounded=0;whiteSpace=wrap;html=1;fillColor=#FFFFFF;" parent="1" vertex="1">
          <mxGeometry x="605" y="350" width="10" height="10" as="geometry" />
        </mxCell>
        <mxCell id="4kmjUg7XTupkvUbKVNHZ-632" value="" style="rounded=0;whiteSpace=wrap;html=1;fillColor=#FFFFFF;" parent="1" vertex="1">
          <mxGeometry x="605" y="360" width="10" height="10" as="geometry" />
        </mxCell>
        <mxCell id="4kmjUg7XTupkvUbKVNHZ-669" value="" style="rounded=0;whiteSpace=wrap;html=1;fillColor=#FFFFFF;strokeColor=default;gradientColor=none;" parent="1" vertex="1">
          <mxGeometry x="650" y="310" width="10" height="10" as="geometry" />
        </mxCell>
        <mxCell id="4kmjUg7XTupkvUbKVNHZ-670" value="" style="rounded=0;whiteSpace=wrap;html=1;fillColor=#FFFFFF;" parent="1" vertex="1">
          <mxGeometry x="660" y="320" width="10" height="10" as="geometry" />
        </mxCell>
        <mxCell id="4kmjUg7XTupkvUbKVNHZ-671" value="" style="rounded=0;whiteSpace=wrap;html=1;fillColor=#FFFFFF;strokeColor=default;gradientColor=none;" parent="1" vertex="1">
          <mxGeometry x="670" y="310" width="10" height="10" as="geometry" />
        </mxCell>
        <mxCell id="4kmjUg7XTupkvUbKVNHZ-672" value="" style="rounded=0;whiteSpace=wrap;html=1;fillColor=#FFFFFF;strokeColor=#000000;" parent="1" vertex="1">
          <mxGeometry x="670" y="320" width="10" height="10" as="geometry" />
        </mxCell>
        <mxCell id="4kmjUg7XTupkvUbKVNHZ-673" value="" style="rounded=0;whiteSpace=wrap;html=1;fillColor=#FFFFFF;strokeColor=default;gradientColor=none;" parent="1" vertex="1">
          <mxGeometry x="660" y="310" width="10" height="10" as="geometry" />
        </mxCell>
        <mxCell id="4kmjUg7XTupkvUbKVNHZ-674" value="" style="rounded=0;whiteSpace=wrap;html=1;fillColor=#FFFFFF;" parent="1" vertex="1">
          <mxGeometry x="650" y="320" width="10" height="10" as="geometry" />
        </mxCell>
        <mxCell id="4kmjUg7XTupkvUbKVNHZ-675" value="" style="rounded=0;whiteSpace=wrap;html=1;fillColor=#FFFFFF;" parent="1" vertex="1">
          <mxGeometry x="650" y="330" width="10" height="10" as="geometry" />
        </mxCell>
        <mxCell id="4kmjUg7XTupkvUbKVNHZ-676" value="" style="rounded=0;whiteSpace=wrap;html=1;fillColor=#FFFFFF;" parent="1" vertex="1">
          <mxGeometry x="660" y="340" width="10" height="10" as="geometry" />
        </mxCell>
        <mxCell id="4kmjUg7XTupkvUbKVNHZ-677" value="" style="rounded=0;whiteSpace=wrap;html=1;" parent="1" vertex="1">
          <mxGeometry x="670" y="330" width="10" height="10" as="geometry" />
        </mxCell>
        <mxCell id="4kmjUg7XTupkvUbKVNHZ-678" value="" style="rounded=0;whiteSpace=wrap;html=1;" parent="1" vertex="1">
          <mxGeometry x="670" y="340" width="10" height="10" as="geometry" />
        </mxCell>
        <mxCell id="4kmjUg7XTupkvUbKVNHZ-679" value="" style="rounded=0;whiteSpace=wrap;html=1;" parent="1" vertex="1">
          <mxGeometry x="660" y="330" width="10" height="10" as="geometry" />
        </mxCell>
        <mxCell id="4kmjUg7XTupkvUbKVNHZ-680" value="" style="rounded=0;whiteSpace=wrap;html=1;fillColor=#FFFFFF;" parent="1" vertex="1">
          <mxGeometry x="650" y="340" width="10" height="10" as="geometry" />
        </mxCell>
        <mxCell id="4kmjUg7XTupkvUbKVNHZ-681" value="" style="rounded=0;whiteSpace=wrap;html=1;fillColor=#FFFFFF;strokeColor=default;gradientColor=none;" parent="1" vertex="1">
          <mxGeometry x="680" y="310" width="10" height="10" as="geometry" />
        </mxCell>
        <mxCell id="4kmjUg7XTupkvUbKVNHZ-682" value="" style="rounded=0;whiteSpace=wrap;html=1;fillColor=#FFFFFF;" parent="1" vertex="1">
          <mxGeometry x="690" y="320" width="10" height="10" as="geometry" />
        </mxCell>
        <mxCell id="4kmjUg7XTupkvUbKVNHZ-683" value="" style="rounded=0;whiteSpace=wrap;html=1;fillColor=#FFFFFF;strokeColor=default;gradientColor=none;" parent="1" vertex="1">
          <mxGeometry x="690" y="310" width="10" height="10" as="geometry" />
        </mxCell>
        <mxCell id="4kmjUg7XTupkvUbKVNHZ-684" value="" style="rounded=0;whiteSpace=wrap;html=1;fillColor=#FFFFFF;" parent="1" vertex="1">
          <mxGeometry x="680" y="320" width="10" height="10" as="geometry" />
        </mxCell>
        <mxCell id="4kmjUg7XTupkvUbKVNHZ-685" value="" style="rounded=0;whiteSpace=wrap;html=1;fillColor=#000000;" parent="1" vertex="1">
          <mxGeometry x="680" y="330" width="10" height="10" as="geometry" />
        </mxCell>
        <mxCell id="4kmjUg7XTupkvUbKVNHZ-686" value="" style="rounded=0;whiteSpace=wrap;html=1;fillColor=#000000;" parent="1" vertex="1">
          <mxGeometry x="690" y="340" width="10" height="10" as="geometry" />
        </mxCell>
        <mxCell id="4kmjUg7XTupkvUbKVNHZ-687" value="" style="rounded=0;whiteSpace=wrap;html=1;fillColor=#FFFFFF;" parent="1" vertex="1">
          <mxGeometry x="690" y="330" width="10" height="10" as="geometry" />
        </mxCell>
        <mxCell id="4kmjUg7XTupkvUbKVNHZ-688" value="" style="rounded=0;whiteSpace=wrap;html=1;" parent="1" vertex="1">
          <mxGeometry x="680" y="340" width="10" height="10" as="geometry" />
        </mxCell>
        <mxCell id="4kmjUg7XTupkvUbKVNHZ-689" value="" style="rounded=0;whiteSpace=wrap;html=1;fillColor=#FFFFFF;" parent="1" vertex="1">
          <mxGeometry x="660" y="350" width="10" height="10" as="geometry" />
        </mxCell>
        <mxCell id="4kmjUg7XTupkvUbKVNHZ-690" value="" style="rounded=0;whiteSpace=wrap;html=1;fillColor=#000000;" parent="1" vertex="1">
          <mxGeometry x="670" y="350" width="10" height="10" as="geometry" />
        </mxCell>
        <mxCell id="4kmjUg7XTupkvUbKVNHZ-691" value="" style="rounded=0;whiteSpace=wrap;html=1;fillColor=#FFFFFF;" parent="1" vertex="1">
          <mxGeometry x="650" y="350" width="10" height="10" as="geometry" />
        </mxCell>
        <mxCell id="4kmjUg7XTupkvUbKVNHZ-692" value="" style="rounded=0;whiteSpace=wrap;html=1;fillColor=#000000;" parent="1" vertex="1">
          <mxGeometry x="690" y="350" width="10" height="10" as="geometry" />
        </mxCell>
        <mxCell id="4kmjUg7XTupkvUbKVNHZ-693" value="" style="rounded=0;whiteSpace=wrap;html=1;fillColor=#000000;" parent="1" vertex="1">
          <mxGeometry x="680" y="350" width="10" height="10" as="geometry" />
        </mxCell>
        <mxCell id="4kmjUg7XTupkvUbKVNHZ-694" value="" style="rounded=0;whiteSpace=wrap;html=1;fillColor=#FFFFFF;" parent="1" vertex="1">
          <mxGeometry x="660" y="360" width="10" height="10" as="geometry" />
        </mxCell>
        <mxCell id="4kmjUg7XTupkvUbKVNHZ-695" value="" style="rounded=0;whiteSpace=wrap;html=1;fillColor=#FFFFFF;" parent="1" vertex="1">
          <mxGeometry x="670" y="360" width="10" height="10" as="geometry" />
        </mxCell>
        <mxCell id="4kmjUg7XTupkvUbKVNHZ-696" value="" style="rounded=0;whiteSpace=wrap;html=1;fillColor=#FFFFFF;" parent="1" vertex="1">
          <mxGeometry x="650" y="360" width="10" height="10" as="geometry" />
        </mxCell>
        <mxCell id="4kmjUg7XTupkvUbKVNHZ-697" value="" style="rounded=0;whiteSpace=wrap;html=1;fillColor=#FFFFFF;" parent="1" vertex="1">
          <mxGeometry x="690" y="360" width="10" height="10" as="geometry" />
        </mxCell>
        <mxCell id="4kmjUg7XTupkvUbKVNHZ-698" value="" style="rounded=0;whiteSpace=wrap;html=1;fillColor=#FFFFFF;" parent="1" vertex="1">
          <mxGeometry x="680" y="360" width="10" height="10" as="geometry" />
        </mxCell>
        <mxCell id="4kmjUg7XTupkvUbKVNHZ-699" value="" style="rounded=0;whiteSpace=wrap;html=1;fillColor=#FFFFFF;" parent="1" vertex="1">
          <mxGeometry x="700" y="320" width="10" height="10" as="geometry" />
        </mxCell>
        <mxCell id="4kmjUg7XTupkvUbKVNHZ-700" value="" style="rounded=0;whiteSpace=wrap;html=1;fillColor=#FFFFFF;strokeColor=default;gradientColor=none;" parent="1" vertex="1">
          <mxGeometry x="700" y="310" width="10" height="10" as="geometry" />
        </mxCell>
        <mxCell id="4kmjUg7XTupkvUbKVNHZ-701" value="" style="rounded=0;whiteSpace=wrap;html=1;fillColor=#FFFFFF;" parent="1" vertex="1">
          <mxGeometry x="700" y="340" width="10" height="10" as="geometry" />
        </mxCell>
        <mxCell id="4kmjUg7XTupkvUbKVNHZ-702" value="" style="rounded=0;whiteSpace=wrap;html=1;fillColor=#FFFFFF;" parent="1" vertex="1">
          <mxGeometry x="700" y="330" width="10" height="10" as="geometry" />
        </mxCell>
        <mxCell id="4kmjUg7XTupkvUbKVNHZ-703" value="" style="rounded=0;whiteSpace=wrap;html=1;fillColor=#FFFFFF;" parent="1" vertex="1">
          <mxGeometry x="700" y="350" width="10" height="10" as="geometry" />
        </mxCell>
        <mxCell id="4kmjUg7XTupkvUbKVNHZ-704" value="" style="rounded=0;whiteSpace=wrap;html=1;fillColor=#FFFFFF;" parent="1" vertex="1">
          <mxGeometry x="700" y="360" width="10" height="10" as="geometry" />
        </mxCell>
        <mxCell id="4kmjUg7XTupkvUbKVNHZ-705" value="" style="html=1;shadow=0;dashed=0;align=center;verticalAlign=middle;shape=mxgraph.arrows2.arrow;dy=0.6;dx=9.28;notch=0;" parent="1" vertex="1">
          <mxGeometry x="335" y="330" width="25" height="20" as="geometry" />
        </mxCell>
        <mxCell id="4kmjUg7XTupkvUbKVNHZ-706" value="" style="html=1;shadow=0;dashed=0;align=center;verticalAlign=middle;shape=mxgraph.arrows2.arrow;dy=0.6;dx=9.28;notch=0;" parent="1" vertex="1">
          <mxGeometry x="430" y="330" width="25" height="20" as="geometry" />
        </mxCell>
        <mxCell id="4kmjUg7XTupkvUbKVNHZ-707" value="" style="html=1;shadow=0;dashed=0;align=center;verticalAlign=middle;shape=mxgraph.arrows2.arrow;dy=0.6;dx=9.28;notch=0;" parent="1" vertex="1">
          <mxGeometry x="525" y="330" width="25" height="20" as="geometry" />
        </mxCell>
        <mxCell id="4kmjUg7XTupkvUbKVNHZ-708" value="" style="html=1;shadow=0;dashed=0;align=center;verticalAlign=middle;shape=mxgraph.arrows2.arrow;dy=0.6;dx=9.28;notch=0;" parent="1" vertex="1">
          <mxGeometry x="620" y="330" width="25" height="20" as="geometry" />
        </mxCell>
        <mxCell id="4kmjUg7XTupkvUbKVNHZ-709" value="" style="html=1;shadow=0;dashed=0;align=center;verticalAlign=middle;shape=mxgraph.arrows2.arrow;dy=0.6;dx=9.28;notch=0;" parent="1" vertex="1">
          <mxGeometry x="715" y="330" width="25" height="20" as="geometry" />
        </mxCell>
        <mxCell id="4kmjUg7XTupkvUbKVNHZ-712" value="..." style="text;html=1;align=center;verticalAlign=middle;resizable=0;points=[];autosize=1;strokeColor=none;fillColor=none;" parent="1" vertex="1">
          <mxGeometry x="740" y="330" width="30" height="30" as="geometry" />
        </mxCell>
      </root>
    </mxGraphModel>
  </diagram>
</mxfile>
